<svg xmlns="http://www.w3.org/2000/svg" viewBox="0 0 900 260" width="900" height="260"><rect width="900" height="260" fill="#F0E9DC"/><g fill="#1A1F26"><g transform="translate(154.99,158.00) scale(0.075000)"><path d="M551 -1429Q623 -1429 699.5 -1416.5Q776 -1404 851.5 -1386.0Q927 -1368 994.5 -1349.5Q1062 -1331 1117.5 -1318.5Q1173 -1306 1209 -1306Q1235 -1306 1250.5 -1318.5Q1266 -1331 1272 -1356Q1275 -1373 1274.0 -1394.5Q1273 -1416 1275 -1445Q1282 -1505 1320.0 -1545.0Q1358 -1585 1435 -1585Q1497 -1585 1538.5 -1539.5Q1580 -1494 1579 -1408Q1577 -1287 1502.5 -1216.0Q1428 -1145 1303 -1145Q1253 -1145 1178.5 -1160.5Q1104 -1176 1019.5 -1198.5Q935 -1221 851.5 -1243.5Q768 -1266 696.5 -1281.5Q625 -1297 578 -1297Q529 -1297 503.0 -1268.5Q477 -1240 476 -1183Q476 -1158 480.0 -1137.0Q484 -1116 488.0 -1094.0Q492 -1072 492 -1042Q491 -982 450.0 -941.5Q409 -901 341 -901Q262 -901 214.5 -953.0Q167 -1005 169 -1099Q171 -1189 216.5 -1264.0Q262 -1339 346.5 -1384.0Q431 -1429 551 -1429ZM843 -222Q833 -189 838.0 -173.0Q843 -157 858 -151L906 -133Q951 -110 951 -72Q951 -36 925.5 -18.0Q900 0 860 0H324Q282 0 264.5 -16.5Q247 -33 247 -61Q247 -89 262.5 -107.5Q278 -126 302 -138L352 -154Q365 -159 378.5 -181.5Q392 -204 407 -246Q418 -277 438.0 -344.5Q458 -412 483.5 -503.0Q509 -594 538.0 -696.5Q567 -799 595.0 -901.5Q623 -1004 648.5 -1094.0Q674 -1184 692.5 -1250.0Q711 -1316 719 -1344L1133 -1265Q1121 -1234 1101.5 -1168.0Q1082 -1102 1058.0 -1014.5Q1034 -927 1007.0 -828.0Q980 -729 954.0 -632.0Q928 -535 905.5 -450.5Q883 -366 866.5 -306.0Q850 -246 843 -222Z"/></g><g transform="translate(154.99,158.00) scale(0.075000)"><path d="M1862 -546Q1862 -698 1902.0 -797.0Q1942 -896 2008.0 -944.0Q2074 -992 2153 -992Q2259 -992 2315.0 -928.5Q2371 -865 2371 -738Q2371 -608 2318.5 -546.0Q2266 -484 2182 -484Q2097 -484 2055.0 -527.5Q2013 -571 2013 -648V-690Q2012 -715 2001.5 -729.0Q1991 -743 1969 -743Q1949 -743 1933.5 -725.0Q1918 -707 1909.0 -667.5Q1900 -628 1900 -561ZM1873 -904 1900 -692V-206Q1900 -172 1910.0 -157.5Q1920 -143 1955 -136L2032 -121Q2061 -115 2075.0 -100.5Q2089 -86 2089 -60Q2089 -31 2070.0 -15.5Q2051 0 2013 0H1461Q1421 0 1403.5 -15.5Q1386 -31 1386 -59Q1386 -78 1396.0 -93.0Q1406 -108 1428 -117L1451 -127Q1466 -134 1472.0 -150.5Q1478 -167 1478 -206V-679Q1478 -710 1469.5 -723.5Q1461 -737 1444 -742L1422 -748Q1401 -755 1391.5 -768.0Q1382 -781 1382 -800Q1382 -824 1395.5 -838.0Q1409 -852 1443 -865L1662 -949Q1732 -976 1762.0 -984.0Q1792 -992 1809 -992Q1837 -992 1851.5 -972.0Q1866 -952 1873 -904Z M3057 -136V-159H3025V-807Q3025 -845 3004.5 -868.0Q2984 -891 2949 -891Q2923 -891 2903.5 -878.5Q2884 -866 2884 -844V-735Q2884 -652 2827.0 -606.0Q2770 -560 2663 -560Q2573 -560 2529.0 -598.0Q2485 -636 2485 -705Q2485 -771 2544.5 -836.5Q2604 -902 2724.0 -946.0Q2844 -990 3026 -990Q3237 -990 3340.0 -912.5Q3443 -835 3443 -701V-223Q3443 -203 3452.5 -191.0Q3462 -179 3482 -179Q3499 -179 3509.5 -188.0Q3520 -197 3529 -206Q3536 -213 3543.0 -218.0Q3550 -223 3560 -223Q3577 -223 3584.0 -211.0Q3591 -199 3591 -180Q3591 -136 3559.5 -88.0Q3528 -40 3464.5 -6.0Q3401 28 3307 28Q3196 28 3126.5 -19.0Q3057 -66 3057 -136ZM2448 -213Q2448 -349 2571.5 -428.5Q2695 -508 2919 -508Q2978 -508 3021.5 -500.0Q3065 -492 3093 -477L3059 -392Q3038 -404 3019.5 -409.0Q3001 -414 2979 -414Q2930 -414 2901.5 -381.0Q2873 -348 2873 -286Q2873 -221 2901.0 -187.5Q2929 -154 2975 -154Q3004 -154 3029.5 -167.5Q3055 -181 3068 -199L3092 -121Q3044 -50 2953.0 -11.0Q2862 28 2758 28Q2619 28 2533.5 -41.0Q2448 -110 2448 -213Z M4163 -904V-206Q4163 -167 4169.0 -151.0Q4175 -135 4190 -127L4211 -116Q4243 -98 4243 -63Q4243 0 4168 0H3723Q3684 0 3666.5 -15.5Q3649 -31 3649 -59Q3649 -78 3659.0 -93.0Q3669 -108 3691 -117L3714 -127Q3729 -134 3735.0 -150.5Q3741 -167 3741 -206V-682Q3741 -714 3732.5 -727.0Q3724 -740 3707 -745L3685 -752Q3664 -759 3654.5 -771.5Q3645 -784 3645 -804Q3645 -827 3658.0 -841.0Q3671 -855 3706 -868L3932 -955Q3982 -975 4013.0 -983.5Q4044 -992 4073 -992Q4117 -992 4140.0 -967.0Q4163 -942 4163 -904ZM4127 -660 4068 -723 4099 -751Q4239 -885 4340.5 -938.5Q4442 -992 4528 -992Q4661 -992 4740.0 -904.5Q4819 -817 4819 -674V-206Q4819 -167 4825.0 -151.0Q4831 -135 4846 -127L4866 -116Q4898 -98 4898 -63Q4898 0 4823 0H4392Q4317 0 4317 -63Q4317 -98 4349 -116L4370 -127Q4385 -135 4391.0 -151.0Q4397 -167 4397 -206V-615Q4397 -678 4370.0 -710.0Q4343 -742 4290 -742Q4257 -742 4223.5 -729.0Q4190 -716 4162 -692ZM4783 -660 4724 -723 4754 -751Q4892 -880 4989.0 -936.0Q5086 -992 5168 -992Q5297 -992 5370.0 -904.0Q5443 -816 5456 -674L5502 -206Q5506 -167 5510.0 -150.5Q5514 -134 5529 -127L5551 -117Q5573 -108 5583.0 -93.0Q5593 -78 5593 -59Q5593 -31 5575.5 -15.5Q5558 0 5518 0H5070Q4995 0 4995 -63Q4995 -98 5027 -116L5047 -127Q5062 -135 5070.0 -151.0Q5078 -167 5074 -206L5036 -615Q5030 -678 5005.5 -710.0Q4981 -742 4930 -742Q4902 -742 4873.0 -728.5Q4844 -715 4818 -692Z M6267 -136V-159H6235V-807Q6235 -845 6214.5 -868.0Q6194 -891 6159 -891Q6133 -891 6113.5 -878.5Q6094 -866 6094 -844V-735Q6094 -652 6037.0 -606.0Q5980 -560 5873 -560Q5783 -560 5739.0 -598.0Q5695 -636 5695 -705Q5695 -771 5754.5 -836.5Q5814 -902 5934.0 -946.0Q6054 -990 6236 -990Q6447 -990 6550.0 -912.5Q6653 -835 6653 -701V-223Q6653 -203 6662.5 -191.0Q6672 -179 6692 -179Q6709 -179 6719.5 -188.0Q6730 -197 6739 -206Q6746 -213 6753.0 -218.0Q6760 -223 6770 -223Q6787 -223 6794.0 -211.0Q6801 -199 6801 -180Q6801 -136 6769.5 -88.0Q6738 -40 6674.5 -6.0Q6611 28 6517 28Q6406 28 6336.5 -19.0Q6267 -66 6267 -136ZM5658 -213Q5658 -349 5781.5 -428.5Q5905 -508 6129 -508Q6188 -508 6231.5 -500.0Q6275 -492 6303 -477L6269 -392Q6248 -404 6229.5 -409.0Q6211 -414 6189 -414Q6140 -414 6111.5 -381.0Q6083 -348 6083 -286Q6083 -221 6111.0 -187.5Q6139 -154 6185 -154Q6214 -154 6239.5 -167.5Q6265 -181 6278 -199L6302 -121Q6254 -50 6163.0 -11.0Q6072 28 5968 28Q5829 28 5743.5 -41.0Q5658 -110 5658 -213Z M7335 -546Q7335 -698 7375.0 -797.0Q7415 -896 7481.0 -944.0Q7547 -992 7626 -992Q7732 -992 7788.0 -928.5Q7844 -865 7844 -738Q7844 -608 7791.5 -546.0Q7739 -484 7655 -484Q7570 -484 7528.0 -527.5Q7486 -571 7486 -648V-690Q7485 -715 7474.5 -729.0Q7464 -743 7442 -743Q7422 -743 7406.5 -725.0Q7391 -707 7382.0 -667.5Q7373 -628 7373 -561ZM7346 -904 7373 -692V-206Q7373 -172 7383.0 -157.5Q7393 -143 7428 -136L7505 -121Q7534 -115 7548.0 -100.5Q7562 -86 7562 -60Q7562 -31 7543.0 -15.5Q7524 0 7486 0H6934Q6894 0 6876.5 -15.5Q6859 -31 6859 -59Q6859 -78 6869.0 -93.0Q6879 -108 6901 -117L6924 -127Q6939 -134 6945.0 -150.5Q6951 -167 6951 -206V-679Q6951 -710 6942.5 -723.5Q6934 -737 6917 -742L6895 -748Q6874 -755 6864.5 -768.0Q6855 -781 6855 -800Q6855 -824 6868.5 -838.0Q6882 -852 6916 -865L7135 -949Q7205 -976 7235.0 -984.0Q7265 -992 7282 -992Q7310 -992 7324.5 -972.0Q7339 -952 7346 -904Z"/></g></g><g fill="#1A1F26" opacity="0.55"><g transform="translate(356.28,215.00) scale(0.010000)"><path d="M75 0V-700H173L420 -211L668 -700H767V0H683V-550L452 -98H389L159 -548V0Z M1968.0 12Q1896.0 12 1837.5 -17.0Q1779.0 -46 1744.0 -105.5Q1709.0 -165 1709.0 -258V-700H1793.0V-257Q1793.0 -189 1815.5 -146.0Q1838.0 -103 1878.0 -83.0Q1918.0 -63 1970.0 -63Q2023.0 -63 2062.0 -83.0Q2101.0 -103 2123.0 -146.0Q2145.0 -189 2145.0 -257V-700H2229.0V-258Q2229.0 -165 2194.0 -105.5Q2159.0 -46 2100.0 -17.0Q2041.0 12 1968.0 12Z M3171.0 0V-700H3397.0Q3479.0 -700 3531.0 -672.5Q3583.0 -645 3608.0 -599.0Q3633.0 -553 3633.0 -495Q3633.0 -439 3607.5 -392.0Q3582.0 -345 3529.0 -317.0Q3476.0 -289 3393.0 -289H3255.0V0ZM3541.0 0 3387.0 -313H3481.0L3640.0 0ZM3255.0 -355H3391.0Q3471.0 -355 3508.5 -394.0Q3546.0 -433 3546.0 -494Q3546.0 -556 3509.5 -592.5Q3473.0 -629 3390.0 -629H3255.0Z M4877.0 12Q4776.0 12 4699.5 -33.5Q4623.0 -79 4580.5 -160.5Q4538.0 -242 4538.0 -350Q4538.0 -457 4580.5 -538.5Q4623.0 -620 4699.5 -666.0Q4776.0 -712 4877.0 -712Q4980.0 -712 5056.0 -666.0Q5132.0 -620 5174.5 -538.5Q5217.0 -457 5217.0 -350Q5217.0 -242 5174.5 -160.5Q5132.0 -79 5056.0 -33.5Q4980.0 12 4877.0 12ZM4877.0 -62Q4953.0 -62 5010.5 -96.5Q5068.0 -131 5099.5 -195.5Q5131.0 -260 5131.0 -350Q5131.0 -440 5099.5 -504.5Q5068.0 -569 5010.5 -603.0Q4953.0 -637 4877.0 -637Q4802.0 -637 4744.5 -603.0Q4687.0 -569 4655.5 -504.5Q4624.0 -440 4624.0 -350Q4624.0 -260 4655.5 -195.5Q4687.0 -131 4744.5 -96.5Q4802.0 -62 4877.0 -62Z M7164.0 0 7422.0 -700H7511.0L7768.0 0H7679.0L7466.0 -595L7252.0 0ZM7282.0 -180 7306.0 -248H7623.0L7647.0 -180Z M8673.0 0V-700H8757.0V-67H9083.0V0Z M10164.0 0V-631H9955.0V-700H10457.0V-631H10248.0V0Z M11673.0 12Q11572.0 12 11495.5 -33.5Q11419.0 -79 11376.5 -160.5Q11334.0 -242 11334.0 -350Q11334.0 -457 11376.5 -538.5Q11419.0 -620 11495.5 -666.0Q11572.0 -712 11673.0 -712Q11776.0 -712 11852.0 -666.0Q11928.0 -620 11970.5 -538.5Q12013.0 -457 12013.0 -350Q12013.0 -242 11970.5 -160.5Q11928.0 -79 11852.0 -33.5Q11776.0 12 11673.0 12ZM11673.0 -62Q11749.0 -62 11806.5 -96.5Q11864.0 -131 11895.5 -195.5Q11927.0 -260 11927.0 -350Q11927.0 -440 11895.5 -504.5Q11864.0 -569 11806.5 -603.0Q11749.0 -637 11673.0 -637Q11598.0 -637 11540.5 -603.0Q11483.0 -569 11451.5 -504.5Q11420.0 -440 11420.0 -350Q11420.0 -260 11451.5 -195.5Q11483.0 -131 11540.5 -96.5Q11598.0 -62 11673.0 -62Z M14030.0 -285Q14005.0 -285 13988.5 -301.5Q13972.0 -318 13972.0 -342Q13972.0 -367 13988.5 -383.0Q14005.0 -399 14030.0 -399Q14055.0 -399 14071.0 -383.0Q14087.0 -367 14087.0 -342Q14087.0 -318 14071.0 -301.5Q14055.0 -285 14030.0 -285Z M16073.0 0V-700H16301.0Q16384.0 -700 16437.5 -672.5Q16491.0 -645 16516.5 -599.0Q16542.0 -553 16542.0 -494Q16542.0 -437 16516.5 -390.5Q16491.0 -344 16438.0 -316.0Q16385.0 -288 16301.0 -288H16157.0V0ZM16157.0 -359H16300.0Q16384.0 -359 16420.0 -396.0Q16456.0 -433 16456.0 -494Q16456.0 -559 16420.0 -594.5Q16384.0 -630 16300.0 -630H16157.0Z M17453.0 0V-700H17886.0V-631H17537.0V-387H17856.0V-319H17537.0V-69H17886.0V0Z"/></g></g></svg>
