<svg xmlns="http://www.w3.org/2000/svg" viewBox="0 0 500 260" width="500" height="260"><g fill="#1A1F26"><g transform="translate(37.59,148.00) scale(0.054000)"><path d="M551 -1429Q623 -1429 699.5 -1416.5Q776 -1404 851.5 -1386.0Q927 -1368 994.5 -1349.5Q1062 -1331 1117.5 -1318.5Q1173 -1306 1209 -1306Q1235 -1306 1250.5 -1318.5Q1266 -1331 1272 -1356Q1275 -1373 1274.0 -1394.5Q1273 -1416 1275 -1445Q1282 -1505 1320.0 -1545.0Q1358 -1585 1435 -1585Q1497 -1585 1538.5 -1539.5Q1580 -1494 1579 -1408Q1577 -1287 1502.5 -1216.0Q1428 -1145 1303 -1145Q1253 -1145 1178.5 -1160.5Q1104 -1176 1019.5 -1198.5Q935 -1221 851.5 -1243.5Q768 -1266 696.5 -1281.5Q625 -1297 578 -1297Q529 -1297 503.0 -1268.5Q477 -1240 476 -1183Q476 -1158 480.0 -1137.0Q484 -1116 488.0 -1094.0Q492 -1072 492 -1042Q491 -982 450.0 -941.5Q409 -901 341 -901Q262 -901 214.5 -953.0Q167 -1005 169 -1099Q171 -1189 216.5 -1264.0Q262 -1339 346.5 -1384.0Q431 -1429 551 -1429ZM843 -222Q833 -189 838.0 -173.0Q843 -157 858 -151L906 -133Q951 -110 951 -72Q951 -36 925.5 -18.0Q900 0 860 0H324Q282 0 264.5 -16.5Q247 -33 247 -61Q247 -89 262.5 -107.5Q278 -126 302 -138L352 -154Q365 -159 378.5 -181.5Q392 -204 407 -246Q418 -277 438.0 -344.5Q458 -412 483.5 -503.0Q509 -594 538.0 -696.5Q567 -799 595.0 -901.5Q623 -1004 648.5 -1094.0Q674 -1184 692.5 -1250.0Q711 -1316 719 -1344L1133 -1265Q1121 -1234 1101.5 -1168.0Q1082 -1102 1058.0 -1014.5Q1034 -927 1007.0 -828.0Q980 -729 954.0 -632.0Q928 -535 905.5 -450.5Q883 -366 866.5 -306.0Q850 -246 843 -222Z"/></g><g transform="translate(37.59,148.00) scale(0.054000)"><path d="M1862 -546Q1862 -698 1902.0 -797.0Q1942 -896 2008.0 -944.0Q2074 -992 2153 -992Q2259 -992 2315.0 -928.5Q2371 -865 2371 -738Q2371 -608 2318.5 -546.0Q2266 -484 2182 -484Q2097 -484 2055.0 -527.5Q2013 -571 2013 -648V-690Q2012 -715 2001.5 -729.0Q1991 -743 1969 -743Q1949 -743 1933.5 -725.0Q1918 -707 1909.0 -667.5Q1900 -628 1900 -561ZM1873 -904 1900 -692V-206Q1900 -172 1910.0 -157.5Q1920 -143 1955 -136L2032 -121Q2061 -115 2075.0 -100.5Q2089 -86 2089 -60Q2089 -31 2070.0 -15.5Q2051 0 2013 0H1461Q1421 0 1403.5 -15.5Q1386 -31 1386 -59Q1386 -78 1396.0 -93.0Q1406 -108 1428 -117L1451 -127Q1466 -134 1472.0 -150.5Q1478 -167 1478 -206V-679Q1478 -710 1469.5 -723.5Q1461 -737 1444 -742L1422 -748Q1401 -755 1391.5 -768.0Q1382 -781 1382 -800Q1382 -824 1395.5 -838.0Q1409 -852 1443 -865L1662 -949Q1732 -976 1762.0 -984.0Q1792 -992 1809 -992Q1837 -992 1851.5 -972.0Q1866 -952 1873 -904Z M3057 -136V-159H3025V-807Q3025 -845 3004.5 -868.0Q2984 -891 2949 -891Q2923 -891 2903.5 -878.5Q2884 -866 2884 -844V-735Q2884 -652 2827.0 -606.0Q2770 -560 2663 -560Q2573 -560 2529.0 -598.0Q2485 -636 2485 -705Q2485 -771 2544.5 -836.5Q2604 -902 2724.0 -946.0Q2844 -990 3026 -990Q3237 -990 3340.0 -912.5Q3443 -835 3443 -701V-223Q3443 -203 3452.5 -191.0Q3462 -179 3482 -179Q3499 -179 3509.5 -188.0Q3520 -197 3529 -206Q3536 -213 3543.0 -218.0Q3550 -223 3560 -223Q3577 -223 3584.0 -211.0Q3591 -199 3591 -180Q3591 -136 3559.5 -88.0Q3528 -40 3464.5 -6.0Q3401 28 3307 28Q3196 28 3126.5 -19.0Q3057 -66 3057 -136ZM2448 -213Q2448 -349 2571.5 -428.5Q2695 -508 2919 -508Q2978 -508 3021.5 -500.0Q3065 -492 3093 -477L3059 -392Q3038 -404 3019.5 -409.0Q3001 -414 2979 -414Q2930 -414 2901.5 -381.0Q2873 -348 2873 -286Q2873 -221 2901.0 -187.5Q2929 -154 2975 -154Q3004 -154 3029.5 -167.5Q3055 -181 3068 -199L3092 -121Q3044 -50 2953.0 -11.0Q2862 28 2758 28Q2619 28 2533.5 -41.0Q2448 -110 2448 -213Z M4163 -904V-206Q4163 -167 4169.0 -151.0Q4175 -135 4190 -127L4211 -116Q4243 -98 4243 -63Q4243 0 4168 0H3723Q3684 0 3666.5 -15.5Q3649 -31 3649 -59Q3649 -78 3659.0 -93.0Q3669 -108 3691 -117L3714 -127Q3729 -134 3735.0 -150.5Q3741 -167 3741 -206V-682Q3741 -714 3732.5 -727.0Q3724 -740 3707 -745L3685 -752Q3664 -759 3654.5 -771.5Q3645 -784 3645 -804Q3645 -827 3658.0 -841.0Q3671 -855 3706 -868L3932 -955Q3982 -975 4013.0 -983.5Q4044 -992 4073 -992Q4117 -992 4140.0 -967.0Q4163 -942 4163 -904ZM4127 -660 4068 -723 4099 -751Q4239 -885 4340.5 -938.5Q4442 -992 4528 -992Q4661 -992 4740.0 -904.5Q4819 -817 4819 -674V-206Q4819 -167 4825.0 -151.0Q4831 -135 4846 -127L4866 -116Q4898 -98 4898 -63Q4898 0 4823 0H4392Q4317 0 4317 -63Q4317 -98 4349 -116L4370 -127Q4385 -135 4391.0 -151.0Q4397 -167 4397 -206V-615Q4397 -678 4370.0 -710.0Q4343 -742 4290 -742Q4257 -742 4223.5 -729.0Q4190 -716 4162 -692ZM4783 -660 4724 -723 4754 -751Q4892 -880 4989.0 -936.0Q5086 -992 5168 -992Q5297 -992 5370.0 -904.0Q5443 -816 5456 -674L5502 -206Q5506 -167 5510.0 -150.5Q5514 -134 5529 -127L5551 -117Q5573 -108 5583.0 -93.0Q5593 -78 5593 -59Q5593 -31 5575.5 -15.5Q5558 0 5518 0H5070Q4995 0 4995 -63Q4995 -98 5027 -116L5047 -127Q5062 -135 5070.0 -151.0Q5078 -167 5074 -206L5036 -615Q5030 -678 5005.5 -710.0Q4981 -742 4930 -742Q4902 -742 4873.0 -728.5Q4844 -715 4818 -692Z M6267 -136V-159H6235V-807Q6235 -845 6214.5 -868.0Q6194 -891 6159 -891Q6133 -891 6113.5 -878.5Q6094 -866 6094 -844V-735Q6094 -652 6037.0 -606.0Q5980 -560 5873 -560Q5783 -560 5739.0 -598.0Q5695 -636 5695 -705Q5695 -771 5754.5 -836.5Q5814 -902 5934.0 -946.0Q6054 -990 6236 -990Q6447 -990 6550.0 -912.5Q6653 -835 6653 -701V-223Q6653 -203 6662.5 -191.0Q6672 -179 6692 -179Q6709 -179 6719.5 -188.0Q6730 -197 6739 -206Q6746 -213 6753.0 -218.0Q6760 -223 6770 -223Q6787 -223 6794.0 -211.0Q6801 -199 6801 -180Q6801 -136 6769.5 -88.0Q6738 -40 6674.5 -6.0Q6611 28 6517 28Q6406 28 6336.5 -19.0Q6267 -66 6267 -136ZM5658 -213Q5658 -349 5781.5 -428.5Q5905 -508 6129 -508Q6188 -508 6231.5 -500.0Q6275 -492 6303 -477L6269 -392Q6248 -404 6229.5 -409.0Q6211 -414 6189 -414Q6140 -414 6111.5 -381.0Q6083 -348 6083 -286Q6083 -221 6111.0 -187.5Q6139 -154 6185 -154Q6214 -154 6239.5 -167.5Q6265 -181 6278 -199L6302 -121Q6254 -50 6163.0 -11.0Q6072 28 5968 28Q5829 28 5743.5 -41.0Q5658 -110 5658 -213Z M7335 -546Q7335 -698 7375.0 -797.0Q7415 -896 7481.0 -944.0Q7547 -992 7626 -992Q7732 -992 7788.0 -928.5Q7844 -865 7844 -738Q7844 -608 7791.5 -546.0Q7739 -484 7655 -484Q7570 -484 7528.0 -527.5Q7486 -571 7486 -648V-690Q7485 -715 7474.5 -729.0Q7464 -743 7442 -743Q7422 -743 7406.5 -725.0Q7391 -707 7382.0 -667.5Q7373 -628 7373 -561ZM7346 -904 7373 -692V-206Q7373 -172 7383.0 -157.5Q7393 -143 7428 -136L7505 -121Q7534 -115 7548.0 -100.5Q7562 -86 7562 -60Q7562 -31 7543.0 -15.5Q7524 0 7486 0H6934Q6894 0 6876.5 -15.5Q6859 -31 6859 -59Q6859 -78 6869.0 -93.0Q6879 -108 6901 -117L6924 -127Q6939 -134 6945.0 -150.5Q6951 -167 6951 -206V-679Q6951 -710 6942.5 -723.5Q6934 -737 6917 -742L6895 -748Q6874 -755 6864.5 -768.0Q6855 -781 6855 -800Q6855 -824 6868.5 -838.0Q6882 -852 6916 -865L7135 -949Q7205 -976 7235.0 -984.0Q7265 -992 7282 -992Q7310 -992 7324.5 -972.0Q7339 -952 7346 -904Z"/></g></g><g fill="#1A1F26" opacity="0.55"><g transform="translate(167.06,205.00) scale(0.009000)"><path d="M75 0V-700H173L420 -211L668 -700H767V0H683V-550L452 -98H389L159 -548V0Z M1945.7777777777778 12Q1873.7777777777778 12 1815.2777777777778 -17.0Q1756.7777777777778 -46 1721.7777777777778 -105.5Q1686.7777777777778 -165 1686.7777777777778 -258V-700H1770.7777777777778V-257Q1770.7777777777778 -189 1793.2777777777778 -146.0Q1815.7777777777778 -103 1855.7777777777778 -83.0Q1895.7777777777778 -63 1947.7777777777778 -63Q2000.7777777777778 -63 2039.7777777777778 -83.0Q2078.777777777778 -103 2100.777777777778 -146.0Q2122.777777777778 -189 2122.777777777778 -257V-700H2206.777777777778V-258Q2206.777777777778 -165 2171.777777777778 -105.5Q2136.777777777778 -46 2077.777777777778 -17.0Q2018.7777777777778 12 1945.7777777777778 12Z M3126.5555555555557 0V-700H3352.5555555555557Q3434.5555555555557 -700 3486.5555555555557 -672.5Q3538.5555555555557 -645 3563.5555555555557 -599.0Q3588.5555555555557 -553 3588.5555555555557 -495Q3588.5555555555557 -439 3563.0555555555557 -392.0Q3537.5555555555557 -345 3484.5555555555557 -317.0Q3431.5555555555557 -289 3348.5555555555557 -289H3210.5555555555557V0ZM3496.5555555555557 0 3342.5555555555557 -313H3436.5555555555557L3595.5555555555557 0ZM3210.5555555555557 -355H3346.5555555555557Q3426.5555555555557 -355 3464.0555555555557 -394.0Q3501.5555555555557 -433 3501.5555555555557 -494Q3501.5555555555557 -556 3465.0555555555557 -592.5Q3428.5555555555557 -629 3345.5555555555557 -629H3210.5555555555557Z M4810.333333333334 12Q4709.333333333334 12 4632.833333333334 -33.5Q4556.333333333334 -79 4513.833333333334 -160.5Q4471.333333333334 -242 4471.333333333334 -350Q4471.333333333334 -457 4513.833333333334 -538.5Q4556.333333333334 -620 4632.833333333334 -666.0Q4709.333333333334 -712 4810.333333333334 -712Q4913.333333333334 -712 4989.333333333334 -666.0Q5065.333333333334 -620 5107.833333333334 -538.5Q5150.333333333334 -457 5150.333333333334 -350Q5150.333333333334 -242 5107.833333333334 -160.5Q5065.333333333334 -79 4989.333333333334 -33.5Q4913.333333333334 12 4810.333333333334 12ZM4810.333333333334 -62Q4886.333333333334 -62 4943.833333333334 -96.5Q5001.333333333334 -131 5032.833333333334 -195.5Q5064.333333333334 -260 5064.333333333334 -350Q5064.333333333334 -440 5032.833333333334 -504.5Q5001.333333333334 -569 4943.833333333334 -603.0Q4886.333333333334 -637 4810.333333333334 -637Q4735.333333333334 -637 4677.833333333334 -603.0Q4620.333333333334 -569 4588.833333333334 -504.5Q4557.333333333334 -440 4557.333333333334 -350Q4557.333333333334 -260 4588.833333333334 -195.5Q4620.333333333334 -131 4677.833333333334 -96.5Q4735.333333333334 -62 4810.333333333334 -62Z M7052.888888888889 0 7310.888888888889 -700H7399.888888888889L7656.888888888889 0H7567.888888888889L7354.888888888889 -595L7140.888888888889 0ZM7170.888888888889 -180 7194.888888888889 -248H7511.888888888889L7535.888888888889 -180Z M8539.666666666666 0V-700H8623.666666666666V-67H8949.666666666666V0Z M10008.444444444443 0V-631H9799.444444444443V-700H10301.444444444443V-631H10092.444444444443V0Z M11495.22222222222 12Q11394.22222222222 12 11317.72222222222 -33.5Q11241.22222222222 -79 11198.72222222222 -160.5Q11156.22222222222 -242 11156.22222222222 -350Q11156.22222222222 -457 11198.72222222222 -538.5Q11241.22222222222 -620 11317.72222222222 -666.0Q11394.22222222222 -712 11495.22222222222 -712Q11598.22222222222 -712 11674.22222222222 -666.0Q11750.22222222222 -620 11792.72222222222 -538.5Q11835.22222222222 -457 11835.22222222222 -350Q11835.22222222222 -242 11792.72222222222 -160.5Q11750.22222222222 -79 11674.22222222222 -33.5Q11598.22222222222 12 11495.22222222222 12ZM11495.22222222222 -62Q11571.22222222222 -62 11628.72222222222 -96.5Q11686.22222222222 -131 11717.72222222222 -195.5Q11749.22222222222 -260 11749.22222222222 -350Q11749.22222222222 -440 11717.72222222222 -504.5Q11686.22222222222 -569 11628.72222222222 -603.0Q11571.22222222222 -637 11495.22222222222 -637Q11420.22222222222 -637 11362.72222222222 -603.0Q11305.22222222222 -569 11273.72222222222 -504.5Q11242.22222222222 -440 11242.22222222222 -350Q11242.22222222222 -260 11273.72222222222 -195.5Q11305.22222222222 -131 11362.72222222222 -96.5Q11420.22222222222 -62 11495.22222222222 -62Z M13807.777777777776 -285Q13782.777777777776 -285 13766.277777777776 -301.5Q13749.777777777776 -318 13749.777777777776 -342Q13749.777777777776 -367 13766.277777777776 -383.0Q13782.777777777776 -399 13807.777777777776 -399Q13832.777777777776 -399 13848.777777777776 -383.0Q13864.777777777776 -367 13864.777777777776 -342Q13864.777777777776 -318 13848.777777777776 -301.5Q13832.777777777776 -285 13807.777777777776 -285Z M15806.33333333333 0V-700H16034.33333333333Q16117.33333333333 -700 16170.83333333333 -672.5Q16224.33333333333 -645 16249.83333333333 -599.0Q16275.33333333333 -553 16275.33333333333 -494Q16275.33333333333 -437 16249.83333333333 -390.5Q16224.33333333333 -344 16171.33333333333 -316.0Q16118.33333333333 -288 16034.33333333333 -288H15890.33333333333V0ZM15890.33333333333 -359H16033.33333333333Q16117.33333333333 -359 16153.33333333333 -396.0Q16189.33333333333 -433 16189.33333333333 -494Q16189.33333333333 -559 16153.33333333333 -594.5Q16117.33333333333 -630 16033.33333333333 -630H15890.33333333333Z M17164.11111111111 0V-700H17597.11111111111V-631H17248.11111111111V-387H17567.11111111111V-319H17248.11111111111V-69H17597.11111111111V0Z"/></g></g></svg>
