<svg xmlns="http://www.w3.org/2000/svg" viewBox="0 0 240 240" width="240" height="240"><g fill="#1A1F26"><g transform="translate(57.28,200.00) scale(0.112000)"><path d="M531 -1423Q581 -1423 645.5 -1413.5Q710 -1404 781.0 -1390.0Q852 -1376 918.5 -1362.0Q985 -1348 1039.0 -1338.5Q1093 -1329 1123 -1329Q1164 -1329 1186.0 -1341.0Q1208 -1353 1217 -1376Q1224 -1394 1225.0 -1411.5Q1226 -1429 1229 -1445Q1233 -1471 1250.5 -1488.0Q1268 -1505 1301 -1505Q1330 -1505 1348.0 -1485.0Q1366 -1465 1366 -1424Q1366 -1352 1311.5 -1307.0Q1257 -1262 1167 -1262Q1126 -1262 1064.0 -1272.5Q1002 -1283 930.5 -1299.0Q859 -1315 786.5 -1331.0Q714 -1347 649.5 -1357.5Q585 -1368 539 -1368Q442 -1368 402.5 -1341.0Q363 -1314 362 -1269Q359 -1247 366.5 -1229.0Q374 -1211 382.0 -1194.5Q390 -1178 389 -1156Q389 -1131 369.5 -1112.0Q350 -1093 317 -1094Q278 -1095 255.5 -1127.0Q233 -1159 237 -1214Q240 -1275 273.5 -1322.5Q307 -1370 371.0 -1396.5Q435 -1423 531 -1423ZM568 -122Q561 -97 571.0 -85.5Q581 -74 604 -69L688 -55Q721 -48 715 -26Q713 -13 699.5 -6.5Q686 0 663 0H267Q247 0 238.0 -7.5Q229 -15 229 -27Q231 -40 242.5 -47.0Q254 -54 274 -59L351 -72Q379 -77 396.0 -90.5Q413 -104 423 -135Q436 -182 458.0 -258.5Q480 -335 506.0 -431.5Q532 -528 561.5 -634.5Q591 -741 620.0 -849.5Q649 -958 676.5 -1057.0Q704 -1156 726.5 -1237.0Q749 -1318 762 -1372L901 -1346Q885 -1292 862.5 -1210.0Q840 -1128 813.0 -1028.5Q786 -929 756.0 -821.5Q726 -714 698.0 -607.5Q670 -501 644.5 -406.5Q619 -312 598.5 -238.5Q578 -165 568 -122Z"/></g></g></svg>
