<svg xmlns="http://www.w3.org/2000/svg" viewBox="0 0 500 260" width="500" height="260"><g fill="#1A1F26"><g transform="translate(68.59,148.00) scale(0.054000)"><path d="M531 -1423Q581 -1423 645.5 -1413.5Q710 -1404 781.0 -1390.0Q852 -1376 918.5 -1362.0Q985 -1348 1039.0 -1338.5Q1093 -1329 1123 -1329Q1164 -1329 1186.0 -1341.0Q1208 -1353 1217 -1376Q1224 -1394 1225.0 -1411.5Q1226 -1429 1229 -1445Q1233 -1471 1250.5 -1488.0Q1268 -1505 1301 -1505Q1330 -1505 1348.0 -1485.0Q1366 -1465 1366 -1424Q1366 -1352 1311.5 -1307.0Q1257 -1262 1167 -1262Q1126 -1262 1064.0 -1272.5Q1002 -1283 930.5 -1299.0Q859 -1315 786.5 -1331.0Q714 -1347 649.5 -1357.5Q585 -1368 539 -1368Q442 -1368 402.5 -1341.0Q363 -1314 362 -1269Q359 -1247 366.5 -1229.0Q374 -1211 382.0 -1194.5Q390 -1178 389 -1156Q389 -1131 369.5 -1112.0Q350 -1093 317 -1094Q278 -1095 255.5 -1127.0Q233 -1159 237 -1214Q240 -1275 273.5 -1322.5Q307 -1370 371.0 -1396.5Q435 -1423 531 -1423ZM568 -122Q561 -97 571.0 -85.5Q581 -74 604 -69L688 -55Q721 -48 715 -26Q713 -13 699.5 -6.5Q686 0 663 0H267Q247 0 238.0 -7.5Q229 -15 229 -27Q231 -40 242.5 -47.0Q254 -54 274 -59L351 -72Q379 -77 396.0 -90.5Q413 -104 423 -135Q436 -182 458.0 -258.5Q480 -335 506.0 -431.5Q532 -528 561.5 -634.5Q591 -741 620.0 -849.5Q649 -958 676.5 -1057.0Q704 -1156 726.5 -1237.0Q749 -1318 762 -1372L901 -1346Q885 -1292 862.5 -1210.0Q840 -1128 813.0 -1028.5Q786 -929 756.0 -821.5Q726 -714 698.0 -607.5Q670 -501 644.5 -406.5Q619 -312 598.5 -238.5Q578 -165 568 -122Z"/></g><g transform="translate(68.59,148.00) scale(0.054000)"><path d="M1459 -513Q1459 -652 1501.5 -749.0Q1544 -846 1611.0 -897.5Q1678 -949 1753 -949Q1839 -949 1887.0 -903.5Q1935 -858 1935 -784Q1935 -735 1913.0 -708.5Q1891 -682 1857 -682Q1822 -682 1802.0 -702.5Q1782 -723 1782 -760V-792Q1781 -827 1763.5 -845.0Q1746 -863 1705 -863Q1654 -863 1604.5 -822.5Q1555 -782 1523.5 -704.0Q1492 -626 1492 -508ZM1486 -899 1492 -656V-114Q1492 -93 1504.5 -80.0Q1517 -67 1541 -64L1637 -52Q1654 -50 1663.0 -43.5Q1672 -37 1672 -25Q1672 -13 1663.0 -6.5Q1654 0 1635 0H1255Q1238 0 1229.0 -6.5Q1220 -13 1220 -25Q1220 -34 1228.0 -41.0Q1236 -48 1251 -51L1308 -61Q1329 -66 1340.5 -78.5Q1352 -91 1352 -114V-784Q1352 -803 1345.0 -812.0Q1338 -821 1320 -822L1237 -823Q1221 -825 1214.0 -830.0Q1207 -835 1207 -844Q1207 -854 1214.5 -860.0Q1222 -866 1240 -873L1384 -922Q1413 -931 1428.5 -934.5Q1444 -938 1454 -938Q1470 -938 1477.5 -929.5Q1485 -921 1486 -899Z M2676 -119V-137L2669 -145V-690Q2669 -793 2618.5 -847.0Q2568 -901 2473 -901Q2380 -901 2336.0 -863.5Q2292 -826 2292 -774V-706Q2292 -670 2269.0 -651.0Q2246 -632 2207 -632Q2173 -632 2153.0 -652.5Q2133 -673 2133 -707Q2133 -767 2177.5 -822.0Q2222 -877 2304.0 -912.5Q2386 -948 2500 -948Q2656 -948 2732.5 -876.5Q2809 -805 2809 -686V-125Q2809 -87 2822.5 -72.0Q2836 -57 2858 -57Q2886 -57 2897.0 -68.5Q2908 -80 2915 -92Q2920 -98 2924.0 -102.5Q2928 -107 2936 -107Q2945 -107 2948.5 -101.5Q2952 -96 2952 -84Q2952 -60 2936.5 -36.0Q2921 -12 2891.0 5.0Q2861 22 2818 22Q2749 22 2712.5 -13.0Q2676 -48 2676 -119ZM2085 -207Q2085 -319 2185.0 -393.5Q2285 -468 2461 -468Q2533 -468 2594.0 -454.0Q2655 -440 2704 -419L2693 -375Q2645 -394 2593.0 -407.5Q2541 -421 2480 -421Q2364 -421 2299.0 -368.5Q2234 -316 2234 -228Q2234 -141 2285.5 -95.0Q2337 -49 2417 -49Q2496 -49 2569.5 -85.0Q2643 -121 2699 -190L2719 -154Q2656 -70 2562.0 -24.0Q2468 22 2363 22Q2242 22 2163.5 -39.0Q2085 -100 2085 -207Z M3385 -899V-115Q3385 -92 3396.5 -79.0Q3408 -66 3429 -61L3482 -51Q3512 -44 3512 -25Q3512 0 3476 0H3147Q3131 0 3122.0 -6.5Q3113 -13 3113 -25Q3113 -34 3121.0 -41.0Q3129 -48 3144 -51L3201 -61Q3222 -67 3233.5 -79.0Q3245 -91 3245 -114V-784Q3245 -804 3238.0 -813.0Q3231 -822 3213 -823L3130 -824Q3114 -825 3107.0 -830.5Q3100 -836 3100 -845Q3100 -853 3107.5 -860.5Q3115 -868 3133 -873L3279 -923Q3304 -932 3320.0 -935.0Q3336 -938 3347 -938Q3366 -938 3375.5 -928.0Q3385 -918 3385 -899ZM3358 -697 3327 -729 3375 -769Q3488 -868 3572.5 -908.5Q3657 -949 3737 -949Q3861 -949 3936.5 -872.5Q4012 -796 4012 -661V-120Q4012 -94 4025.0 -80.0Q4038 -66 4061 -61L4109 -50Q4138 -44 4138 -25Q4138 0 4104 0H3776Q3740 0 3740 -25Q3740 -44 3770 -51L3827 -61Q3850 -66 3861.0 -80.5Q3872 -95 3872 -119V-639Q3872 -750 3816.5 -805.5Q3761 -861 3669 -861Q3613 -861 3548.0 -831.5Q3483 -802 3405 -737ZM3986 -697 3953 -729 4001 -769Q4112 -866 4192.0 -907.5Q4272 -949 4349 -949Q4467 -949 4530.5 -872.0Q4594 -795 4609 -661L4676 -120Q4679 -94 4690.5 -80.0Q4702 -66 4725 -61L4774 -51Q4788 -48 4796.0 -41.0Q4804 -34 4804 -25Q4804 -13 4796.5 -6.5Q4789 0 4769 0H4440Q4403 0 4403 -25Q4403 -44 4433 -51L4489 -61Q4513 -66 4525.0 -80.5Q4537 -95 4534 -119L4469 -639Q4455 -750 4410.0 -805.5Q4365 -861 4281 -861Q4228 -861 4167.5 -831.0Q4107 -801 4032 -737Z M5534 -119V-137L5527 -145V-690Q5527 -793 5476.5 -847.0Q5426 -901 5331 -901Q5238 -901 5194.0 -863.5Q5150 -826 5150 -774V-706Q5150 -670 5127.0 -651.0Q5104 -632 5065 -632Q5031 -632 5011.0 -652.5Q4991 -673 4991 -707Q4991 -767 5035.5 -822.0Q5080 -877 5162.0 -912.5Q5244 -948 5358 -948Q5514 -948 5590.5 -876.5Q5667 -805 5667 -686V-125Q5667 -87 5680.5 -72.0Q5694 -57 5716 -57Q5744 -57 5755.0 -68.5Q5766 -80 5773 -92Q5778 -98 5782.0 -102.5Q5786 -107 5794 -107Q5803 -107 5806.5 -101.5Q5810 -96 5810 -84Q5810 -60 5794.5 -36.0Q5779 -12 5749.0 5.0Q5719 22 5676 22Q5607 22 5570.5 -13.0Q5534 -48 5534 -119ZM4943 -207Q4943 -319 5043.0 -393.5Q5143 -468 5319 -468Q5391 -468 5452.0 -454.0Q5513 -440 5562 -419L5551 -375Q5503 -394 5451.0 -407.5Q5399 -421 5338 -421Q5222 -421 5157.0 -368.5Q5092 -316 5092 -228Q5092 -141 5143.5 -95.0Q5195 -49 5275 -49Q5354 -49 5427.5 -85.0Q5501 -121 5557 -190L5577 -154Q5514 -70 5420.0 -24.0Q5326 22 5221 22Q5100 22 5021.5 -39.0Q4943 -100 4943 -207Z M6210 -513Q6210 -652 6252.5 -749.0Q6295 -846 6362.0 -897.5Q6429 -949 6504 -949Q6590 -949 6638.0 -903.5Q6686 -858 6686 -784Q6686 -735 6664.0 -708.5Q6642 -682 6608 -682Q6573 -682 6553.0 -702.5Q6533 -723 6533 -760V-792Q6532 -827 6514.5 -845.0Q6497 -863 6456 -863Q6405 -863 6355.5 -822.5Q6306 -782 6274.5 -704.0Q6243 -626 6243 -508ZM6237 -899 6243 -656V-114Q6243 -93 6255.5 -80.0Q6268 -67 6292 -64L6388 -52Q6405 -50 6414.0 -43.5Q6423 -37 6423 -25Q6423 -13 6414.0 -6.5Q6405 0 6386 0H6006Q5989 0 5980.0 -6.5Q5971 -13 5971 -25Q5971 -34 5979.0 -41.0Q5987 -48 6002 -51L6059 -61Q6080 -66 6091.5 -78.5Q6103 -91 6103 -114V-784Q6103 -803 6096.0 -812.0Q6089 -821 6071 -822L5988 -823Q5972 -825 5965.0 -830.0Q5958 -835 5958 -844Q5958 -854 5965.5 -860.0Q5973 -866 5991 -873L6135 -922Q6164 -931 6179.5 -934.5Q6195 -938 6205 -938Q6221 -938 6228.5 -929.5Q6236 -921 6237 -899Z"/></g></g><g fill="#1A1F26" opacity="0.55"><g transform="translate(167.39,205.00) scale(0.009000)"><path d="M78 0V-700H159L415 -195L673 -700H754V0H684V-572L442 -98H390L148 -570V0Z M1933.7777777777778 12Q1862.7777777777778 12 1805.2777777777778 -16.0Q1747.7777777777778 -44 1713.7777777777778 -103.5Q1679.7777777777778 -163 1679.7777777777778 -255V-700H1749.7777777777778V-254Q1749.7777777777778 -183 1773.2777777777778 -137.5Q1796.7777777777778 -92 1838.7777777777778 -71.0Q1880.7777777777778 -50 1934.7777777777778 -50Q1989.7777777777778 -50 2030.7777777777778 -71.0Q2071.777777777778 -92 2094.777777777778 -137.5Q2117.777777777778 -183 2117.777777777778 -254V-700H2187.777777777778V-255Q2187.777777777778 -163 2153.777777777778 -103.5Q2119.777777777778 -44 2062.277777777778 -16.0Q2004.7777777777778 12 1933.7777777777778 12Z M3112.5555555555557 0V-700H3328.5555555555557Q3409.5555555555557 -700 3461.0555555555557 -673.0Q3512.5555555555557 -646 3536.5555555555557 -600.5Q3560.5555555555557 -555 3560.5555555555557 -497Q3560.5555555555557 -441 3536.0555555555557 -394.5Q3511.5555555555557 -348 3459.0555555555557 -320.5Q3406.5555555555557 -293 3324.5555555555557 -293H3182.5555555555557V0ZM3485.5555555555557 0 3328.5555555555557 -315H3407.5555555555557L3568.5555555555557 0ZM3182.5555555555557 -350H3323.5555555555557Q3409.5555555555557 -350 3449.0555555555557 -391.0Q3488.5555555555557 -432 3488.5555555555557 -497Q3488.5555555555557 -564 3450.0555555555557 -602.5Q3411.5555555555557 -641 3322.5555555555557 -641H3182.5555555555557Z M4785.333333333334 12Q4684.333333333334 12 4608.333333333334 -33.5Q4532.333333333334 -79 4490.333333333334 -160.5Q4448.333333333334 -242 4448.333333333334 -350Q4448.333333333334 -457 4490.333333333334 -538.5Q4532.333333333334 -620 4608.333333333334 -666.0Q4684.333333333334 -712 4785.333333333334 -712Q4888.333333333334 -712 4963.333333333334 -666.0Q5038.333333333334 -620 5080.833333333334 -538.5Q5123.333333333334 -457 5123.333333333334 -350Q5123.333333333334 -242 5080.833333333334 -160.5Q5038.333333333334 -79 4963.333333333334 -33.5Q4888.333333333334 12 4785.333333333334 12ZM4785.333333333334 -49Q4864.333333333334 -49 4924.333333333334 -85.0Q4984.333333333334 -121 5017.833333333334 -188.5Q5051.333333333334 -256 5051.333333333334 -350Q5051.333333333334 -444 5018.333333333334 -511.0Q4985.333333333334 -578 4924.833333333334 -614.0Q4864.333333333334 -650 4785.333333333334 -650Q4707.333333333334 -650 4646.333333333334 -614.0Q4585.333333333334 -578 4552.833333333334 -511.0Q4520.333333333334 -444 4520.333333333334 -350Q4520.333333333334 -256 4552.833333333334 -188.5Q4585.333333333334 -121 4646.333333333334 -85.0Q4707.333333333334 -49 4785.333333333334 -49Z M7029.888888888889 0 7287.888888888889 -700H7359.888888888889L7617.888888888889 0H7543.888888888889L7323.888888888889 -608L7102.888888888889 0ZM7147.888888888889 -189 7168.888888888889 -247H7477.888888888889L7498.888888888889 -189Z M8505.666666666666 0V-700H8575.666666666666V-57H8906.666666666666V0Z M9967.444444444443 0V-642H9757.444444444443V-700H10247.444444444443V-642H10037.444444444443V0Z M11443.22222222222 12Q11342.22222222222 12 11266.22222222222 -33.5Q11190.22222222222 -79 11148.22222222222 -160.5Q11106.22222222222 -242 11106.22222222222 -350Q11106.22222222222 -457 11148.22222222222 -538.5Q11190.22222222222 -620 11266.22222222222 -666.0Q11342.22222222222 -712 11443.22222222222 -712Q11546.22222222222 -712 11621.22222222222 -666.0Q11696.22222222222 -620 11738.72222222222 -538.5Q11781.22222222222 -457 11781.22222222222 -350Q11781.22222222222 -242 11738.72222222222 -160.5Q11696.22222222222 -79 11621.22222222222 -33.5Q11546.22222222222 12 11443.22222222222 12ZM11443.22222222222 -49Q11522.22222222222 -49 11582.22222222222 -85.0Q11642.22222222222 -121 11675.72222222222 -188.5Q11709.22222222222 -256 11709.22222222222 -350Q11709.22222222222 -444 11676.22222222222 -511.0Q11643.22222222222 -578 11582.72222222222 -614.0Q11522.22222222222 -650 11443.22222222222 -650Q11365.22222222222 -650 11304.22222222222 -614.0Q11243.22222222222 -578 11210.72222222222 -511.0Q11178.22222222222 -444 11178.22222222222 -350Q11178.22222222222 -256 11210.72222222222 -188.5Q11243.22222222222 -121 11304.22222222222 -85.0Q11365.22222222222 -49 11443.22222222222 -49Z M13748.777777777776 -295Q13726.777777777776 -295 13712.277777777776 -310.0Q13697.777777777776 -325 13697.777777777776 -347Q13697.777777777776 -369 13712.277777777776 -383.5Q13726.777777777776 -398 13748.777777777776 -398Q13770.777777777776 -398 13785.277777777776 -383.5Q13799.777777777776 -369 13799.777777777776 -347Q13799.777777777776 -325 13785.777777777776 -310.0Q13771.777777777776 -295 13748.777777777776 -295Z M15746.33333333333 0V-700H15965.33333333333Q16047.33333333333 -700 16100.33333333333 -673.0Q16153.33333333333 -646 16178.33333333333 -601.0Q16203.33333333333 -556 16203.33333333333 -497Q16203.33333333333 -441 16178.33333333333 -395.0Q16153.33333333333 -349 16100.83333333333 -322.0Q16048.33333333333 -295 15965.33333333333 -295H15816.33333333333V0ZM15816.33333333333 -355H15966.33333333333Q16055.33333333333 -355 16093.33333333333 -394.0Q16131.33333333333 -433 16131.33333333333 -497Q16131.33333333333 -567 16093.33333333333 -604.0Q16055.33333333333 -641 15966.33333333333 -641H15816.33333333333Z M17097.11111111111 0V-700H17522.11111111111V-642H17167.11111111111V-381H17492.11111111111V-323H17167.11111111111V-58H17522.11111111111V0Z"/></g></g></svg>
