<svg xmlns="http://www.w3.org/2000/svg" viewBox="0 0 900 260" width="900" height="260"><rect width="900" height="260" fill="#1A1F26"/><g fill="#A89C8A"><g transform="translate(198.04,158.00) scale(0.075000)"><path d="M531 -1423Q581 -1423 645.5 -1413.5Q710 -1404 781.0 -1390.0Q852 -1376 918.5 -1362.0Q985 -1348 1039.0 -1338.5Q1093 -1329 1123 -1329Q1164 -1329 1186.0 -1341.0Q1208 -1353 1217 -1376Q1224 -1394 1225.0 -1411.5Q1226 -1429 1229 -1445Q1233 -1471 1250.5 -1488.0Q1268 -1505 1301 -1505Q1330 -1505 1348.0 -1485.0Q1366 -1465 1366 -1424Q1366 -1352 1311.5 -1307.0Q1257 -1262 1167 -1262Q1126 -1262 1064.0 -1272.5Q1002 -1283 930.5 -1299.0Q859 -1315 786.5 -1331.0Q714 -1347 649.5 -1357.5Q585 -1368 539 -1368Q442 -1368 402.5 -1341.0Q363 -1314 362 -1269Q359 -1247 366.5 -1229.0Q374 -1211 382.0 -1194.5Q390 -1178 389 -1156Q389 -1131 369.5 -1112.0Q350 -1093 317 -1094Q278 -1095 255.5 -1127.0Q233 -1159 237 -1214Q240 -1275 273.5 -1322.5Q307 -1370 371.0 -1396.5Q435 -1423 531 -1423ZM568 -122Q561 -97 571.0 -85.5Q581 -74 604 -69L688 -55Q721 -48 715 -26Q713 -13 699.5 -6.5Q686 0 663 0H267Q247 0 238.0 -7.5Q229 -15 229 -27Q231 -40 242.5 -47.0Q254 -54 274 -59L351 -72Q379 -77 396.0 -90.5Q413 -104 423 -135Q436 -182 458.0 -258.5Q480 -335 506.0 -431.5Q532 -528 561.5 -634.5Q591 -741 620.0 -849.5Q649 -958 676.5 -1057.0Q704 -1156 726.5 -1237.0Q749 -1318 762 -1372L901 -1346Q885 -1292 862.5 -1210.0Q840 -1128 813.0 -1028.5Q786 -929 756.0 -821.5Q726 -714 698.0 -607.5Q670 -501 644.5 -406.5Q619 -312 598.5 -238.5Q578 -165 568 -122Z"/></g><g transform="translate(198.04,158.00) scale(0.075000)"><path d="M1459 -513Q1459 -652 1501.5 -749.0Q1544 -846 1611.0 -897.5Q1678 -949 1753 -949Q1839 -949 1887.0 -903.5Q1935 -858 1935 -784Q1935 -735 1913.0 -708.5Q1891 -682 1857 -682Q1822 -682 1802.0 -702.5Q1782 -723 1782 -760V-792Q1781 -827 1763.5 -845.0Q1746 -863 1705 -863Q1654 -863 1604.5 -822.5Q1555 -782 1523.5 -704.0Q1492 -626 1492 -508ZM1486 -899 1492 -656V-114Q1492 -93 1504.5 -80.0Q1517 -67 1541 -64L1637 -52Q1654 -50 1663.0 -43.5Q1672 -37 1672 -25Q1672 -13 1663.0 -6.5Q1654 0 1635 0H1255Q1238 0 1229.0 -6.5Q1220 -13 1220 -25Q1220 -34 1228.0 -41.0Q1236 -48 1251 -51L1308 -61Q1329 -66 1340.5 -78.5Q1352 -91 1352 -114V-784Q1352 -803 1345.0 -812.0Q1338 -821 1320 -822L1237 -823Q1221 -825 1214.0 -830.0Q1207 -835 1207 -844Q1207 -854 1214.5 -860.0Q1222 -866 1240 -873L1384 -922Q1413 -931 1428.5 -934.5Q1444 -938 1454 -938Q1470 -938 1477.5 -929.5Q1485 -921 1486 -899Z M2676 -119V-137L2669 -145V-690Q2669 -793 2618.5 -847.0Q2568 -901 2473 -901Q2380 -901 2336.0 -863.5Q2292 -826 2292 -774V-706Q2292 -670 2269.0 -651.0Q2246 -632 2207 -632Q2173 -632 2153.0 -652.5Q2133 -673 2133 -707Q2133 -767 2177.5 -822.0Q2222 -877 2304.0 -912.5Q2386 -948 2500 -948Q2656 -948 2732.5 -876.5Q2809 -805 2809 -686V-125Q2809 -87 2822.5 -72.0Q2836 -57 2858 -57Q2886 -57 2897.0 -68.5Q2908 -80 2915 -92Q2920 -98 2924.0 -102.5Q2928 -107 2936 -107Q2945 -107 2948.5 -101.5Q2952 -96 2952 -84Q2952 -60 2936.5 -36.0Q2921 -12 2891.0 5.0Q2861 22 2818 22Q2749 22 2712.5 -13.0Q2676 -48 2676 -119ZM2085 -207Q2085 -319 2185.0 -393.5Q2285 -468 2461 -468Q2533 -468 2594.0 -454.0Q2655 -440 2704 -419L2693 -375Q2645 -394 2593.0 -407.5Q2541 -421 2480 -421Q2364 -421 2299.0 -368.5Q2234 -316 2234 -228Q2234 -141 2285.5 -95.0Q2337 -49 2417 -49Q2496 -49 2569.5 -85.0Q2643 -121 2699 -190L2719 -154Q2656 -70 2562.0 -24.0Q2468 22 2363 22Q2242 22 2163.5 -39.0Q2085 -100 2085 -207Z M3385 -899V-115Q3385 -92 3396.5 -79.0Q3408 -66 3429 -61L3482 -51Q3512 -44 3512 -25Q3512 0 3476 0H3147Q3131 0 3122.0 -6.5Q3113 -13 3113 -25Q3113 -34 3121.0 -41.0Q3129 -48 3144 -51L3201 -61Q3222 -67 3233.5 -79.0Q3245 -91 3245 -114V-784Q3245 -804 3238.0 -813.0Q3231 -822 3213 -823L3130 -824Q3114 -825 3107.0 -830.5Q3100 -836 3100 -845Q3100 -853 3107.5 -860.5Q3115 -868 3133 -873L3279 -923Q3304 -932 3320.0 -935.0Q3336 -938 3347 -938Q3366 -938 3375.5 -928.0Q3385 -918 3385 -899ZM3358 -697 3327 -729 3375 -769Q3488 -868 3572.5 -908.5Q3657 -949 3737 -949Q3861 -949 3936.5 -872.5Q4012 -796 4012 -661V-120Q4012 -94 4025.0 -80.0Q4038 -66 4061 -61L4109 -50Q4138 -44 4138 -25Q4138 0 4104 0H3776Q3740 0 3740 -25Q3740 -44 3770 -51L3827 -61Q3850 -66 3861.0 -80.5Q3872 -95 3872 -119V-639Q3872 -750 3816.5 -805.5Q3761 -861 3669 -861Q3613 -861 3548.0 -831.5Q3483 -802 3405 -737ZM3986 -697 3953 -729 4001 -769Q4112 -866 4192.0 -907.5Q4272 -949 4349 -949Q4467 -949 4530.5 -872.0Q4594 -795 4609 -661L4676 -120Q4679 -94 4690.5 -80.0Q4702 -66 4725 -61L4774 -51Q4788 -48 4796.0 -41.0Q4804 -34 4804 -25Q4804 -13 4796.5 -6.5Q4789 0 4769 0H4440Q4403 0 4403 -25Q4403 -44 4433 -51L4489 -61Q4513 -66 4525.0 -80.5Q4537 -95 4534 -119L4469 -639Q4455 -750 4410.0 -805.5Q4365 -861 4281 -861Q4228 -861 4167.5 -831.0Q4107 -801 4032 -737Z M5534 -119V-137L5527 -145V-690Q5527 -793 5476.5 -847.0Q5426 -901 5331 -901Q5238 -901 5194.0 -863.5Q5150 -826 5150 -774V-706Q5150 -670 5127.0 -651.0Q5104 -632 5065 -632Q5031 -632 5011.0 -652.5Q4991 -673 4991 -707Q4991 -767 5035.5 -822.0Q5080 -877 5162.0 -912.5Q5244 -948 5358 -948Q5514 -948 5590.5 -876.5Q5667 -805 5667 -686V-125Q5667 -87 5680.5 -72.0Q5694 -57 5716 -57Q5744 -57 5755.0 -68.5Q5766 -80 5773 -92Q5778 -98 5782.0 -102.5Q5786 -107 5794 -107Q5803 -107 5806.5 -101.5Q5810 -96 5810 -84Q5810 -60 5794.5 -36.0Q5779 -12 5749.0 5.0Q5719 22 5676 22Q5607 22 5570.5 -13.0Q5534 -48 5534 -119ZM4943 -207Q4943 -319 5043.0 -393.5Q5143 -468 5319 -468Q5391 -468 5452.0 -454.0Q5513 -440 5562 -419L5551 -375Q5503 -394 5451.0 -407.5Q5399 -421 5338 -421Q5222 -421 5157.0 -368.5Q5092 -316 5092 -228Q5092 -141 5143.5 -95.0Q5195 -49 5275 -49Q5354 -49 5427.5 -85.0Q5501 -121 5557 -190L5577 -154Q5514 -70 5420.0 -24.0Q5326 22 5221 22Q5100 22 5021.5 -39.0Q4943 -100 4943 -207Z M6210 -513Q6210 -652 6252.5 -749.0Q6295 -846 6362.0 -897.5Q6429 -949 6504 -949Q6590 -949 6638.0 -903.5Q6686 -858 6686 -784Q6686 -735 6664.0 -708.5Q6642 -682 6608 -682Q6573 -682 6553.0 -702.5Q6533 -723 6533 -760V-792Q6532 -827 6514.5 -845.0Q6497 -863 6456 -863Q6405 -863 6355.5 -822.5Q6306 -782 6274.5 -704.0Q6243 -626 6243 -508ZM6237 -899 6243 -656V-114Q6243 -93 6255.5 -80.0Q6268 -67 6292 -64L6388 -52Q6405 -50 6414.0 -43.5Q6423 -37 6423 -25Q6423 -13 6414.0 -6.5Q6405 0 6386 0H6006Q5989 0 5980.0 -6.5Q5971 -13 5971 -25Q5971 -34 5979.0 -41.0Q5987 -48 6002 -51L6059 -61Q6080 -66 6091.5 -78.5Q6103 -91 6103 -114V-784Q6103 -803 6096.0 -812.0Q6089 -821 6071 -822L5988 -823Q5972 -825 5965.0 -830.0Q5958 -835 5958 -844Q5958 -854 5965.5 -860.0Q5973 -866 5991 -873L6135 -922Q6164 -931 6179.5 -934.5Q6195 -938 6205 -938Q6221 -938 6228.5 -929.5Q6236 -921 6237 -899Z"/></g></g><g fill="#A89C8A" opacity="0.55"><g transform="translate(356.65,215.00) scale(0.010000)"><path d="M78 0V-700H159L415 -195L673 -700H754V0H684V-572L442 -98H390L148 -570V0Z M1956.0 12Q1885.0 12 1827.5 -16.0Q1770.0 -44 1736.0 -103.5Q1702.0 -163 1702.0 -255V-700H1772.0V-254Q1772.0 -183 1795.5 -137.5Q1819.0 -92 1861.0 -71.0Q1903.0 -50 1957.0 -50Q2012.0 -50 2053.0 -71.0Q2094.0 -92 2117.0 -137.5Q2140.0 -183 2140.0 -254V-700H2210.0V-255Q2210.0 -163 2176.0 -103.5Q2142.0 -44 2084.5 -16.0Q2027.0 12 1956.0 12Z M3157.0 0V-700H3373.0Q3454.0 -700 3505.5 -673.0Q3557.0 -646 3581.0 -600.5Q3605.0 -555 3605.0 -497Q3605.0 -441 3580.5 -394.5Q3556.0 -348 3503.5 -320.5Q3451.0 -293 3369.0 -293H3227.0V0ZM3530.0 0 3373.0 -315H3452.0L3613.0 0ZM3227.0 -350H3368.0Q3454.0 -350 3493.5 -391.0Q3533.0 -432 3533.0 -497Q3533.0 -564 3494.5 -602.5Q3456.0 -641 3367.0 -641H3227.0Z M4852.0 12Q4751.0 12 4675.0 -33.5Q4599.0 -79 4557.0 -160.5Q4515.0 -242 4515.0 -350Q4515.0 -457 4557.0 -538.5Q4599.0 -620 4675.0 -666.0Q4751.0 -712 4852.0 -712Q4955.0 -712 5030.0 -666.0Q5105.0 -620 5147.5 -538.5Q5190.0 -457 5190.0 -350Q5190.0 -242 5147.5 -160.5Q5105.0 -79 5030.0 -33.5Q4955.0 12 4852.0 12ZM4852.0 -49Q4931.0 -49 4991.0 -85.0Q5051.0 -121 5084.5 -188.5Q5118.0 -256 5118.0 -350Q5118.0 -444 5085.0 -511.0Q5052.0 -578 4991.5 -614.0Q4931.0 -650 4852.0 -650Q4774.0 -650 4713.0 -614.0Q4652.0 -578 4619.5 -511.0Q4587.0 -444 4587.0 -350Q4587.0 -256 4619.5 -188.5Q4652.0 -121 4713.0 -85.0Q4774.0 -49 4852.0 -49Z M7141.0 0 7399.0 -700H7471.0L7729.0 0H7655.0L7435.0 -608L7214.0 0ZM7259.0 -189 7280.0 -247H7589.0L7610.0 -189Z M8639.0 0V-700H8709.0V-57H9040.0V0Z M10123.0 0V-642H9913.0V-700H10403.0V-642H10193.0V0Z M11621.0 12Q11520.0 12 11444.0 -33.5Q11368.0 -79 11326.0 -160.5Q11284.0 -242 11284.0 -350Q11284.0 -457 11326.0 -538.5Q11368.0 -620 11444.0 -666.0Q11520.0 -712 11621.0 -712Q11724.0 -712 11799.0 -666.0Q11874.0 -620 11916.5 -538.5Q11959.0 -457 11959.0 -350Q11959.0 -242 11916.5 -160.5Q11874.0 -79 11799.0 -33.5Q11724.0 12 11621.0 12ZM11621.0 -49Q11700.0 -49 11760.0 -85.0Q11820.0 -121 11853.5 -188.5Q11887.0 -256 11887.0 -350Q11887.0 -444 11854.0 -511.0Q11821.0 -578 11760.5 -614.0Q11700.0 -650 11621.0 -650Q11543.0 -650 11482.0 -614.0Q11421.0 -578 11388.5 -511.0Q11356.0 -444 11356.0 -350Q11356.0 -256 11388.5 -188.5Q11421.0 -121 11482.0 -85.0Q11543.0 -49 11621.0 -49Z M13971.0 -295Q13949.0 -295 13934.5 -310.0Q13920.0 -325 13920.0 -347Q13920.0 -369 13934.5 -383.5Q13949.0 -398 13971.0 -398Q13993.0 -398 14007.5 -383.5Q14022.0 -369 14022.0 -347Q14022.0 -325 14008.0 -310.0Q13994.0 -295 13971.0 -295Z M16013.0 0V-700H16232.0Q16314.0 -700 16367.0 -673.0Q16420.0 -646 16445.0 -601.0Q16470.0 -556 16470.0 -497Q16470.0 -441 16445.0 -395.0Q16420.0 -349 16367.5 -322.0Q16315.0 -295 16232.0 -295H16083.0V0ZM16083.0 -355H16233.0Q16322.0 -355 16360.0 -394.0Q16398.0 -433 16398.0 -497Q16398.0 -567 16360.0 -604.0Q16322.0 -641 16233.0 -641H16083.0Z M17386.0 0V-700H17811.0V-642H17456.0V-381H17781.0V-323H17456.0V-58H17811.0V0Z"/></g></g></svg>
